<?xml version="1.0" standalone="no"?>
<!DOCTYPE svg PUBLIC "-//W3C//DTD SVG 20010904//EN"
 "http://www.w3.org/TR/2001/REC-SVG-20010904/DTD/svg10.dtd">
<svg version="1.0" xmlns="http://www.w3.org/2000/svg"
 width="237.000000pt" height="304.000000pt" viewBox="0 0 237.000000 304.000000"
 preserveAspectRatio="xMidYMid meet">

<g transform="translate(0.000000,304.000000) scale(0.100000,-0.100000)"
fill="#000000" stroke="none">
<path d="M818 2896 c-89 -35 -148 -108 -169 -210 l-12 -63 -66 -7 c-36 -3 -89
-6 -118 -6 -44 0 -55 -4 -72 -26 -25 -32 -25 -34 -7 -60 13 -17 25 -19 139
-16 l124 4 7 -89 c4 -48 6 -167 6 -263 -2 -186 1 -205 53 -306 53 -104 147
-181 280 -229 l62 -23 3 -106 3 -106 52 0 53 0 1 101 c0 55 2 102 4 104 2 2
63 8 135 13 139 10 181 23 273 82 26 17 65 54 87 83 21 28 55 65 74 82 145
126 198 201 222 318 14 66 0 110 -40 126 -16 6 -168 11 -384 13 -196 2 -360 6
-363 10 -4 4 -10 89 -12 190 -3 122 -10 199 -19 230 -17 51 -74 117 -126 144
-43 22 -143 28 -190 10z m147 -110 c70 -29 72 -42 77 -374 5 -273 7 -302 27
-357 54 -151 172 -261 321 -300 l45 -12 -40 -14 c-28 -10 -87 -14 -200 -14
-154 0 -162 1 -220 28 -78 36 -137 95 -172 171 l-28 61 -3 360 c-2 335 -1 362
16 394 34 63 107 86 177 57z m745 -675 c0 -55 -3 -106 -6 -115 -10 -26 -65
-54 -131 -66 -184 -33 -355 76 -397 253 l-6 27 270 0 270 0 0 -99z"/>
<path d="M850 2621 c0 -18 31 -41 54 -41 21 0 56 27 56 43 0 4 -25 7 -55 7
-30 0 -55 -4 -55 -9z"/>
<path d="M407 1368 c-62 -9 -162 -63 -198 -109 -67 -85 -90 -186 -64 -284 17
-65 59 -138 100 -173 l25 -22 -34 -35 c-19 -18 -49 -64 -67 -101 -29 -59 -34
-78 -33 -144 0 -62 5 -84 27 -128 40 -77 89 -126 156 -156 l59 -26 853 0 c470
0 864 0 877 0 30 0 62 34 62 68 0 19 -15 43 -50 80 -63 68 -86 135 -70 207 14
61 21 75 75 135 72 81 72 122 1 198 -60 65 -77 103 -77 171 -1 69 20 115 80
180 58 62 53 120 -12 136 -32 8 -1656 11 -1710 3z m1588 -134 c-73 -107 -72
-256 1 -366 l24 -38 -792 0 c-545 0 -805 4 -833 11 -52 15 -101 53 -129 103
-73 128 -12 272 133 317 14 4 385 8 823 8 l797 1 -24 -36z m1 -541 c-75 -113
-75 -253 0 -365 l24 -38 -787 0 c-438 0 -805 5 -827 10 -120 27 -194 149 -164
267 14 57 84 133 138 150 24 8 280 11 838 12 l802 1 -24 -37z"/>
<path d="M456 1094 c-21 -21 -20 -57 2 -78 17 -15 77 -16 708 -14 l689 3 13
28 c12 24 11 31 -2 53 l-16 24 -690 0 c-613 0 -690 -2 -704 -16z"/>
<path d="M456 544 c-20 -20 -20 -58 0 -78 14 -14 88 -16 707 -14 l692 3 13 28
c12 24 11 31 -2 53 l-16 24 -690 0 c-613 0 -690 -2 -704 -16z"/>
</g>
</svg>
