<?xml version="1.0" standalone="no"?>
<!DOCTYPE svg PUBLIC "-//W3C//DTD SVG 20010904//EN"
 "http://www.w3.org/TR/2001/REC-SVG-20010904/DTD/svg10.dtd">
<svg version="1.0" xmlns="http://www.w3.org/2000/svg"
 width="274.000000pt" height="223.000000pt" viewBox="0 0 274.000000 223.000000"
 preserveAspectRatio="xMidYMid meet">

<g transform="translate(0.000000,223.000000) scale(0.100000,-0.100000)"
fill="#000000" stroke="none">
<path d="M1146 2039 c-30 -24 -56 -69 -56 -99 0 -17 -6 -20 -49 -20 -70 0
-103 -14 -99 -43 3 -21 7 -22 76 -18 l72 3 0 -127 c0 -72 5 -146 12 -169 16
-54 92 -131 147 -147 l41 -12 0 -54 c0 -52 0 -53 30 -53 29 0 30 1 30 49 l0
48 66 7 c37 4 82 13 100 21 44 18 201 176 220 220 19 47 19 111 -2 119 -9 3
-99 6 -200 6 l-184 0 0 95 c0 105 -11 139 -56 174 -19 15 -41 21 -74 21 -33 0
-55 -6 -74 -21z m127 -57 c12 -13 16 -55 19 -177 3 -140 6 -165 25 -201 27
-52 80 -98 129 -114 33 -11 36 -14 19 -21 -11 -4 -54 -8 -95 -8 -124 -1 -187
41 -209 140 -14 59 -14 318 0 357 17 48 79 61 112 24z m347 -330 c0 -53 -2
-60 -25 -70 -37 -17 -111 -15 -152 4 -36 18 -83 77 -83 106 0 16 12 18 130 18
l130 0 0 -58z"/>
<path d="M1195 1910 c3 -5 15 -10 25 -10 10 0 22 5 25 10 4 6 -7 10 -25 10
-18 0 -29 -4 -25 -10z"/>
<path d="M914 1271 c-70 -42 -98 -122 -70 -195 9 -24 25 -51 36 -61 19 -17 19
-18 -5 -47 -59 -70 -57 -155 5 -222 l39 -41 470 -3 471 -3 0 26 c0 16 -12 39
-30 57 -44 44 -44 107 1 153 36 38 39 83 8 111 -54 48 -55 136 -4 170 17 11
25 26 25 45 l0 29 -457 0 c-432 0 -460 -1 -489 -19z m845 -68 c-24 -47 -24
-99 0 -146 l19 -38 -415 3 -415 3 -29 33 c-49 55 -31 145 35 172 11 5 202 9
422 9 l402 1 -19 -37z m0 -270 c-24 -47 -24 -99 0 -146 l19 -38 -415 3 -415 3
-29 33 c-43 47 -41 102 5 148 l34 34 410 0 410 0 -19 -37z"/>
<path d="M993 1144 c-15 -40 15 -44 357 -44 342 0 372 4 357 44 -6 14 -41 16
-357 16 -316 0 -351 -2 -357 -16z"/>
<path d="M1005 876 c-11 -8 -16 -19 -12 -30 6 -14 41 -16 357 -16 316 0 351 2
357 16 15 40 -15 44 -357 44 -259 0 -330 -3 -345 -14z"/>
<path d="M107 433 c-4 -3 -7 -57 -7 -120 l0 -113 65 0 c52 0 69 4 85 20 26 26
26 75 1 92 -17 12 -17 16 -5 33 20 27 18 42 -11 70 -19 20 -34 25 -73 25 -27
0 -52 -3 -55 -7z m114 -39 c21 -25 -1 -49 -50 -52 -41 -3 -41 -3 -41 32 0 35
1 36 39 36 23 0 44 -6 52 -16z m7 -96 c7 -7 12 -22 12 -35 0 -26 -32 -43 -81
-43 -28 0 -29 2 -29 45 l0 45 43 0 c24 0 48 -5 55 -12z"/>
<path d="M369 425 c-30 -16 -59 -70 -59 -110 0 -34 24 -80 52 -99 13 -9 43
-16 71 -16 42 0 54 5 83 34 29 29 34 41 34 83 0 28 -7 58 -16 71 -34 48 -112
66 -165 37z m126 -40 c19 -18 25 -35 25 -69 0 -38 -5 -48 -32 -71 -81 -69
-184 27 -133 125 17 33 27 38 78 39 28 1 45 -6 62 -24z"/>
<path d="M670 433 c-56 -22 -87 -89 -70 -152 14 -54 53 -81 118 -81 43 0 55 5
80 30 52 51 49 134 -6 184 -21 19 -95 30 -122 19z m107 -45 c29 -33 36 -63 23
-103 -12 -35 -51 -65 -85 -65 -31 0 -72 29 -85 59 -26 65 17 131 85 131 30 0
47 -6 62 -22z"/>
<path d="M896 433 c-3 -3 -6 -57 -6 -120 0 -94 3 -113 15 -113 11 0 15 12 15
44 0 75 21 71 87 -19 15 -20 25 -27 32 -20 7 7 -3 27 -29 62 -22 28 -40 55
-40 59 0 4 18 27 40 51 63 68 36 74 -31 7 l-59 -58 0 51 c0 49 -9 71 -24 56z"/>
<path d="M1214 427 c-10 -28 1 -220 14 -225 8 -2 12 10 12 42 0 44 1 46 28 46
22 0 32 -8 52 -45 14 -25 30 -45 37 -45 19 0 16 16 -11 59 -25 38 -25 39 -5
56 29 27 25 79 -7 104 -31 24 -111 29 -120 8z m104 -29 c7 -7 12 -21 12 -33 0
-30 -19 -45 -57 -45 -32 0 -33 1 -33 45 0 44 1 45 33 45 18 0 38 -5 45 -12z"/>
<path d="M1417 434 c-4 -4 -7 -58 -7 -121 l0 -113 85 0 c101 0 115 18 18 22
l-68 3 -3 43 -3 42 50 0 c28 0 51 5 51 10 0 6 -22 10 -50 10 l-50 0 0 40 0 39
68 3 c37 2 67 8 67 13 0 11 -147 20 -158 9z"/>
<path d="M1655 428 c-26 -15 -35 -28 -35 -55 0 -26 44 -63 76 -63 27 0 67 -35
61 -53 -2 -7 -15 -19 -29 -27 -27 -14 -45 -10 -90 22 -28 20 -33 0 -8 -27 19
-20 33 -25 70 -25 54 0 83 23 83 66 0 34 -24 57 -75 69 -45 11 -65 33 -55 59
8 21 80 22 97 1 7 -8 16 -15 21 -15 15 0 10 19 -11 40 -22 22 -73 26 -105 8z"/>
<path d="M1840 320 l0 -120 80 0 c47 0 80 4 80 10 0 6 -28 10 -65 10 l-65 0 0
45 0 45 50 0 c28 0 50 5 50 10 0 6 -22 10 -50 10 l-50 0 0 40 0 39 68 3 c95 4
84 22 -15 26 l-83 3 0 -121z"/>
<path d="M2055 428 c-11 -29 -1 -221 13 -226 8 -2 12 10 12 42 0 43 2 46 25
46 19 0 32 -11 53 -45 15 -25 33 -45 39 -45 18 0 16 10 -11 55 -24 39 -24 40
-5 63 44 56 11 112 -69 120 -39 3 -53 1 -57 -10z m103 -30 c7 -7 12 -21 12
-33 0 -30 -19 -45 -57 -45 -32 0 -33 1 -33 45 0 44 1 45 33 45 18 0 38 -5 45
-12z"/>
<path d="M2227 433 c-8 -13 87 -228 102 -228 13 0 112 215 104 228 -11 19 -24
0 -59 -88 -22 -52 -42 -95 -45 -95 -3 0 -20 37 -39 83 -34 84 -54 115 -63 100z"/>
<path d="M2474 427 c-2 -7 -3 -60 -2 -118 l3 -104 83 -3 c49 -2 82 1 82 7 0 6
-30 11 -67 13 l-68 3 0 40 0 40 53 3 c28 2 52 7 52 12 0 5 -24 10 -52 12 l-53
3 -3 38 -3 37 70 0 c56 0 71 3 71 15 0 20 -158 22 -166 2z"/>
<path d="M1077 294 c-14 -14 6 -24 49 -24 32 0 44 4 42 13 -5 13 -79 22 -91
11z"/>
</g>
</svg>
